<?xml version="1.0" standalone="no"?>
<!DOCTYPE svg PUBLIC "-//W3C//DTD SVG 20010904//EN"
 "http://www.w3.org/TR/2001/REC-SVG-20010904/DTD/svg10.dtd">
<svg version="1.0" xmlns="http://www.w3.org/2000/svg"
 width="657.000000pt" height="671.000000pt" viewBox="0 0 657.000000 671.000000"
 preserveAspectRatio="xMidYMid meet">

<g transform="translate(0.000000,671.000000) scale(0.100000,-0.100000)"
fill="#000000" stroke="none">
<path d="M944 5196 c-109 -27 -214 -118 -255 -224 -30 -76 -31 -196 -2 -267
11 -27 90 -156 175 -285 85 -129 325 -494 533 -810 560 -853 635 -967 768
-1170 67 -102 183 -278 257 -390 836 -1275 779 -1191 848 -1237 74 -49 143
-67 238 -61 79 4 159 37 217 87 20 18 65 76 100 129 78 118 340 517 662 1007
51 77 167 255 259 395 92 140 220 335 284 432 65 98 185 280 267 406 83 125
200 304 261 397 62 94 239 364 395 600 155 237 294 453 307 480 34 68 41 181
17 260 -25 77 -79 151 -146 196 -109 75 106 69 -2654 68 -1939 -1 -2491 -3
-2531 -13z"/>
</g>
</svg>
